<?xml version="1.0" encoding="UTF-8" standalone="no"?>
<!-- Created with Inkscape (http://www.inkscape.org/) -->

<svg
   width="62mm"
   height="12mm"
   viewBox="0 0 62 12"
   version="1.1"
   id="svg1"
   xmlns="http://www.w3.org/2000/svg"
   xmlns:svg="http://www.w3.org/2000/svg">
  <defs
     id="defs1" />
  <g
     id="layer1">
    <path
       d="m 35.656971,11.947482 q -0.931125,0 -1.675111,-0.69123 -0.739423,-0.698827 -1.168472,-2.0053228 -0.424485,-1.306496 -0.424485,-3.1371124 0,-1.8458104 0.424485,-3.1523065 0.429049,-1.3140931 1.168472,-2.00532316 0.743986,-0.69123004 1.675111,-0.69123004 0.620751,0 1.150213,0.31143459 0.529467,0.30383758 0.931128,0.87352771 0.406225,0.5620991 0.657263,1.3520781 0.255603,0.7899729 0.333197,1.7698465 H 37.071917 Q 37.021709,4.1160907 36.898474,3.7590802 36.779802,3.4020758 36.601789,3.1590019 36.42378,2.9083374 36.191001,2.7792065 35.95822,2.6500757 35.684356,2.6500757 q -0.524896,0 -0.890045,0.4177744 -0.365144,0.4177805 -0.561413,1.1925592 -0.191702,0.7747849 -0.191702,1.8534075 0,1.0710255 0.191702,1.8458042 0.191704,0.767188 0.556848,1.1849624 0.369714,0.4177805 0.89461,0.4177805 0.273864,0 0.50208,-0.1215396 0.232783,-0.129125 0.410792,-0.3797956 0.178009,-0.2506645 0.296681,-0.6000719 0.123236,-0.3570106 0.182573,-0.8051729 h 1.65229 q -0.0776,0.9722827 -0.333197,1.7622554 -0.251038,0.7899727 -0.657263,1.3596687 -0.406226,0.5621 -0.93569,0.865937 -0.5249,0.303838 -1.145651,0.303837 z m 7.220887,0 q -0.921997,0 -1.66142,-0.69123 -0.734857,-0.698827 -1.163909,-2.0053228 -0.429047,-1.306496 -0.429047,-3.1371124 0,-1.8458104 0.429047,-3.1523065 0.429052,-1.3140931 1.163909,-2.00532316 0.739423,-0.69123004 1.66142,-0.69123004 0.921997,0 1.656855,0.69123004 0.734858,0.69123006 1.163906,2.00532316 0.429051,1.3064961 0.429051,3.1523065 0,1.8382133 -0.429051,3.1447095 -0.429048,1.3064957 -1.163906,1.9977257 -0.734858,0.69123 -1.656855,0.69123 z m 0,-2.3851181 q 0.488385,0 0.844404,-0.4025866 0.360582,-0.4101773 0.556849,-1.1773651 0.196264,-0.7747851 0.196264,-1.8685954 0,-1.1014074 -0.196264,-1.8761923 -0.196267,-0.7747849 -0.556849,-1.1773653 -0.356019,-0.4101835 -0.844404,-0.4101835 -0.48382,0 -0.844402,0.4101835 -0.360584,0.4025804 -0.561415,1.1773653 -0.196265,0.7747849 -0.196265,1.8761923 0,1.0938103 0.196265,1.8685954 0.200831,0.7671878 0.561415,1.1773651 0.360582,0.4025866 0.844402,0.4025866 z m 4.359043,2.2028151 V 0.44726088 h 2.428229 l 0.876354,4.44361472 q 0.07303,0.4025803 0.173445,0.9874644 0.100415,0.5848903 0.205395,1.2305382 0.104981,0.6380572 0.196266,1.2229475 0.09129,0.5848841 0.14606,0.9798736 h -0.415354 q 0.05477,-0.3949895 0.141492,-0.9798736 0.09129,-0.5848903 0.19627,-1.2229475 0.104977,-0.6456479 0.200831,-1.2305382 0.100414,-0.5848841 0.168877,-0.9874644 l 0.867226,-4.44361472 h 2.432793 V 11.765179 H 53.243574 V 6.8658107 q 0,-0.3797954 0.0091,-0.9494917 0.0091,-0.5696901 0.01827,-1.2305383 0.01367,-0.660842 0.02282,-1.336878 0.01371,-0.676036 0.01371,-1.2761141 h 0.191704 q -0.100394,0.63046 -0.214505,1.3140931 -0.114106,0.683633 -0.223651,1.3444751 -0.10498,0.6532511 -0.200831,1.2077532 -0.09585,0.5469053 -0.168879,0.9267007 l -0.97677,4.8993683 H 50.386315 L 49.391289,6.8658107 Q 49.322821,6.4860153 49.222406,5.93911 49.121992,5.3846079 49.01245,4.7313568 48.902904,4.0705147 48.784233,3.3868817 48.670123,2.7032486 48.565142,2.0727886 h 0.219091 q 0.0045,0.6000781 0.01367,1.2761141 0.0091,0.676036 0.01827,1.336878 0.01371,0.6608482 0.02283,1.2305383 0.0091,0.5696963 0.0091,0.9494917 v 4.8993683 z m 8.927947,0 V 0.44726088 h 2.784247 q 0.785066,0 1.360175,0.47094732 0.575105,0.4633503 0.88548,1.3216901 0.314941,0.8583398 0.314941,2.0357051 0,1.1697683 -0.314941,2.028108 -0.314937,0.8583399 -0.894611,1.3292871 -0.575105,0.4709474 -1.36017,0.4709474 H 57.095975 V 5.8327642 h 1.739014 q 0.328631,0 0.565978,-0.1898947 0.241909,-0.1899009 0.374276,-0.5393083 0.132366,-0.3570105 0.132366,-0.8279578 0,-0.4861413 -0.132366,-0.8279579 Q 59.642876,3.0982381 59.400967,2.9083374 59.16362,2.7108457 58.834989,2.7108457 h -1.026977 v 9.0543333 z"
       id="text5"
       style="font-weight:800;font-size:25.4325px;line-height:2.1;font-family:Inter;-inkscape-font-specification:'Inter Ultra-Bold';text-align:center;letter-spacing:1.18px;word-spacing:1px;text-anchor:middle;white-space:pre;fill:#dfdfdf;fill-opacity:0.772549;stroke-width:0"
       aria-label="COMP" />
    <path
       d="m 2.7910367,11.960543 q -0.9087326,0 -1.5466796,-0.463069 -0.63794692,-0.470782 -0.97298442,-1.35832 -0.3350373,-0.8952627 -0.3350373,-2.1609682 H 1.5105524 q 0.00917,0.5479578 0.1698119,0.9415635 0.1606353,0.3936056 0.4451878,0.6019836 0.2891427,0.2083781 0.6792515,0.2083781 0.3533982,0 0.6104131,-0.1543522 0.2616051,-0.1543585 0.4038794,-0.4321937 0.1468647,-0.2855603 0.1468647,-0.6637284 0,-0.3241423 -0.1239172,-0.5633956 Q 3.7227166,7.6694751 3.4611115,7.4919663 3.2040966,7.3067387 2.7910367,7.1601052 L 2.088834,6.9208518 Q 1.0883121,6.573553 0.57887258,5.7554725 0.06943298,4.9296732 0.06943298,3.6716801 q 0,-1.0727656 0.3350374,-1.8754084 0.3396276,-0.80264901 0.94544682,-1.25027423 0.6058229,-0.45535029 1.4089917,-0.45535029 0.8215296,0 1.4135819,0.45535029 Q 4.7645431,0.99362269 5.0904,1.8348598 5.420851,2.6760907 5.4437983,3.8569077 H 3.915476 Q 3.8833592,3.1391598 3.5758483,2.7301165 3.2729387,2.3210793 2.7818562,2.3210793 q -0.3074998,0 -0.550744,0.1543522 Q 1.9924544,2.62979 1.8547665,2.9076251 1.7216726,3.1777478 1.7216726,3.5404782 q 0,0.3164295 0.1147368,0.5479641 0.1147405,0.2238156 0.3579848,0.3936056 0.2432479,0.16979 0.6333605,0.3009919 l 0.601229,0.2006591 q 0.5691048,0.1929464 0.9775747,0.4862194 0.4130599,0.2855542 0.6746649,0.6868788 0.2661916,0.4013245 0.3901125,0.9338447 0.1285076,0.5248074 0.1285076,1.1885358 0,1.1576605 -0.3350375,1.9834594 -0.3350374,0.818081 -0.9638077,1.257994 -0.6287666,0.439912 -1.5099615,0.439912 z m 3.993011,-0.185228 V 0.27587485 H 11.878447 V 2.6375026 H 8.4362835 V 4.8524971 H 11.616843 V 7.1446675 H 8.4362835 v 2.2690139 h 3.4421635 v 2.3616336 z m 6.2556563,0 V 0.27587485 h 2.817983 q 0.793992,0 1.372278,0.47850064 0.578282,0.47078181 0.890372,1.34288811 0.316679,0.8721063 0.316679,2.0683548 0,1.1653792 -0.330447,2.0220477 -0.330446,0.848956 -0.927088,1.312019 -0.596643,0.4553442 -1.413582,0.4553442 H 14.044816 V 5.7709102 h 1.702725 q 0.330446,0 0.569102,-0.2006654 0.243246,-0.200659 0.371754,-0.5633892 0.133098,-0.3627365 0.133098,-0.8412372 0,-0.4939383 -0.133098,-0.8489499 Q 16.559889,2.9539322 16.316643,2.7532729 16.077987,2.5526076 15.742951,2.5526076 h -1.051008 v 9.2227074 z m 3.832276,0 -1.523731,-5.2094808 h 1.707314 l 1.560447,5.2094808 z m 2.785955,0 V 0.27587485 h 5.094404 V 2.6375026 h -3.442163 v 2.2149945 h 3.180557 v 2.2921704 h -3.180557 v 2.2690139 h 3.442163 v 2.3616336 z m 8.977264,0.185228 q -0.908733,0 -1.546679,-0.463069 -0.637947,-0.470782 -0.972986,-1.35832 -0.335036,-0.8952627 -0.335036,-2.1609682 h 1.574217 q 0.0092,0.5479578 0.169813,0.9415635 0.160635,0.3936056 0.445187,0.6019836 0.289143,0.2083781 0.679251,0.2083781 0.353398,0 0.610414,-0.1543522 0.261601,-0.1543585 0.403878,-0.4321937 0.146865,-0.2855603 0.146865,-0.6637284 0,-0.3241423 -0.123916,-0.5633956 Q 29.566879,7.6694751 29.305274,7.4919663 29.048259,7.3067387 28.635199,7.1601052 L 27.932997,6.9208518 Q 26.932475,6.573553 26.423036,5.7554725 q -0.50944,-0.8257993 -0.50944,-2.0837924 0,-1.0727656 0.335038,-1.8754084 0.339627,-0.80264901 0.945447,-1.25027423 0.605818,-0.45535029 1.408991,-0.45535029 0.82153,0 1.413582,0.45535029 0.592052,0.44762522 0.917909,1.28886233 0.330451,0.8412309 0.353398,2.0220479 h -1.528323 q -0.03212,-0.7177479 -0.339627,-1.1267912 -0.30291,-0.4090372 -0.793992,-0.4090372 -0.3075,0 -0.550745,0.1543522 -0.238657,0.1543585 -0.376344,0.4321936 -0.133094,0.2701227 -0.133094,0.6328531 0,0.3164295 0.114736,0.5479641 0.11474,0.2238156 0.357986,0.3936056 0.243247,0.16979 0.63336,0.3009919 l 0.601229,0.2006591 q 0.569104,0.1929464 0.977574,0.4862194 0.41306,0.2855542 0.674664,0.6868788 0.266193,0.4013245 0.390114,0.9338447 0.128507,0.5248074 0.128507,1.1885358 0,1.1576605 -0.335037,1.9834594 -0.335038,0.818081 -0.963808,1.257994 -0.628767,0.439912 -1.509962,0.439912 z"
       id="text1"
       style="font-weight:800;font-size:25.4325px;line-height:2.1;font-family:Inter;-inkscape-font-specification:'Inter Ultra-Bold';text-align:center;letter-spacing:1.18px;word-spacing:1px;text-anchor:middle;white-space:pre;fill:#dfdfdf;fill-opacity:0.771863;stroke-width:0"
       aria-label="SERES" />
    <path
       d="m 3.1344692,11.945521 q -0.9047999,0 -1.5399862,-0.463469 Q 0.95929683,11.010864 0.62570938,10.12256 0.29212188,9.2265237 0.29212188,7.959725 H 1.8595264 q 0.00913,0.5484311 0.169077,0.9423766 0.1599401,0.3939456 0.4432612,0.6025035 0.2878913,0.208558 0.676312,0.208558 0.3518688,0 0.6077715,-0.1544856 0.2604693,-0.1544917 0.4021316,-0.4325669 0.1462291,-0.2858069 0.1462291,-0.6643014 0,-0.3244221 -0.123381,-0.5638821 Q 4.0621172,7.6507478 3.8016442,7.4730857 3.5457416,7.2876981 3.1344692,7.1409381 L 2.4353055,6.901478 Q 1.4391133,6.5538794 0.93187843,5.7350924 0.42464358,4.90858 0.42464358,3.6495006 q 0,-1.0736918 0.3335875,-1.8770277 Q 1.0963888,0.96913073 1.6995863,0.52111898 2.3027838,0.0653755 3.1024804,0.0653755 q 0.8179744,0 1.4074645,0.45574348 0.5894902,0.44801175 0.913937,1.28997522 0.3290208,0.8419573 0.3518689,2.023794 H 4.2540423 Q 4.2220646,3.1165205 3.9158845,2.707124 3.6142857,2.2977336 3.1253285,2.2977336 q -0.3061691,0 -0.5483607,0.1544855 -0.2376249,0.1544918 -0.3747169,0.4325669 -0.132518,0.2703559 -0.132518,0.6333994 0,0.3167028 0.1142403,0.5484373 0.1142439,0.224009 0.3564355,0.3939455 Q 2.782604,4.6305048 3.1710246,4.76182 l 0.5986308,0.2008324 q 0.5666421,0.1931131 0.9733441,0.4866393 0.4112724,0.2858007 0.6717454,0.6874718 0.2650396,0.4016711 0.3884243,0.9346511 0.1279513,0.5252607 0.1279513,1.1895622 0,1.15866 -0.3335875,1.9851722 -0.3335875,0.818787 -0.9596367,1.25908 -0.6260456,0.440292 -1.5034271,0.440292 z M 7.1101964,11.760134 V 0.2507631 H 12.182553 V 2.6144302 H 8.7552859 v 2.216907 H 11.92208 V 7.125487 H 8.7552859 v 2.2709733 h 3.4272671 v 2.3636737 z m 6.2285886,0 V 0.2507631 h 2.805788 q 0.790556,0 1.366339,0.47891383 0.575779,0.47118827 0.886518,1.34404767 0.31531,0.8728594 0.31531,2.0701408 0,1.1663856 -0.329017,2.023794 -0.329021,0.849689 -0.923078,1.3131518 -0.59406,0.4557373 -1.407464,0.4557373 h -1.713634 v -2.186005 h 1.695352 q 0.329021,0 0.566642,-0.2008387 0.242196,-0.2008324 0.370147,-0.5638758 0.132522,-0.3630497 0.132522,-0.8419636 0,-0.4943648 -0.132522,-0.8496828 Q 16.843737,2.9311329 16.601541,2.7303005 16.36392,2.5294619 16.030333,2.5294619 h -1.046459 v 9.2306721 z m 3.815691,0 -1.517138,-5.2139801 h 1.699926 l 1.553694,5.2139801 z m 2.773899,0 V 0.2507631 h 5.072357 v 2.3636671 h -3.427268 v 2.216907 h 3.166795 V 7.125487 h -3.166795 v 2.2709733 h 3.427268 v 2.3636737 z m 8.938414,0.185387 q -0.9048,0 -1.539986,-0.463469 Q 26.691616,11.010864 26.358029,10.12256 26.024441,9.2265237 26.024441,7.959725 h 1.567405 q 0.0091,0.5484311 0.169077,0.9423766 0.15994,0.3939456 0.443261,0.6025035 0.287892,0.208558 0.676312,0.208558 0.351869,0 0.607772,-0.1544856 0.260469,-0.1544917 0.402131,-0.4325669 0.146229,-0.2858069 0.146229,-0.6643014 0,-0.3244221 -0.123381,-0.5638821 Q 29.794437,7.6507478 29.533964,7.4730857 29.278061,7.2876981 28.866789,7.1409381 L 28.167625,6.901478 Q 27.171433,6.5538794 26.664198,5.7350924 26.156963,4.90858 26.156963,3.6495006 q 0,-1.0736918 0.333588,-1.8770277 0.338157,-0.80334217 0.941355,-1.25135392 0.603197,-0.45574348 1.402894,-0.45574348 0.817974,0 1.407465,0.45574348 0.58949,0.44801175 0.913936,1.28997522 0.329018,0.8419573 0.351869,2.023794 H 29.986362 Q 29.954384,3.1165205 29.648204,2.707124 29.346605,2.2977336 28.857648,2.2977336 q -0.306169,0 -0.548361,0.1544855 -0.237625,0.1544918 -0.374717,0.4325669 -0.132521,0.2703559 -0.132521,0.6333994 0,0.3167028 0.114244,0.5484373 0.114244,0.224009 0.356435,0.3939455 0.242196,0.1699366 0.630616,0.3012518 l 0.598631,0.2008324 q 0.566642,0.1931131 0.973344,0.4866393 0.411272,0.2858007 0.671745,0.6874718 0.26504,0.4016711 0.388425,0.9346511 0.127951,0.5252607 0.127951,1.1895622 0,1.15866 -0.333587,1.9851722 -0.333588,0.818787 -0.959637,1.25908 -0.626046,0.440292 -1.503427,0.440292 z m 7.046559,0 q -0.932215,0 -1.677075,-0.702923 Q 33.495984,10.53195 33.06643,9.2033534 32.64145,7.8747567 32.64145,6.0131738 q 0,-1.8770339 0.42498,-3.2056305 0.429554,-1.3363222 1.169843,-2.03924499 0.74486,-0.70292281 1.677075,-0.70292281 0.621479,0 1.151562,0.31670278 0.530083,0.30897727 0.932218,0.88830422 0.406702,0.5716076 0.658034,1.3749497 0.255903,0.8033359 0.333588,1.799785 H 37.329953 Q 37.279686,3.9816544 37.156305,3.6186047 37.037491,3.2555612 36.859273,3.0083757 36.681056,2.7534709 36.448001,2.6221557 36.214946,2.4908405 35.940766,2.4908405 q -0.525513,0 -0.891089,0.4248414 -0.365576,0.4248476 -0.562072,1.2127325 -0.191928,0.7878911 -0.191928,1.8847594 0,1.0891429 0.191928,1.8770278 0.191926,0.7801655 0.557502,1.2050069 0.370146,0.4248477 0.895659,0.4248477 0.27418,0 0.502665,-0.1235959 0.233054,-0.131309 0.411272,-0.38622 0.178218,-0.2549049 0.297032,-0.6102228 0.123381,-0.3630497 0.182788,-0.8187932 h 1.654227 q -0.07769,0.9887297 -0.333588,1.7920656 -0.251332,0.8033361 -0.658034,1.3826691 -0.406702,0.571608 -0.936789,0.880585 -0.525512,0.308977 -1.146991,0.308977 z m 7.229347,0 q -0.923078,0 -1.663367,-0.702923 -0.73572,-0.710648 -1.16527,-2.0392446 -0.42955,-1.3285967 -0.42955,-3.1901796 0,-1.8770339 0.42955,-3.2056305 0.42955,-1.3363222 1.16527,-2.03924499 0.740289,-0.70292281 1.663367,-0.70292281 0.923077,0 1.658796,0.70292281 0.735723,0.70292279 1.165273,2.03924499 0.42955,1.3285966 0.42955,3.2056305 0,1.8693085 -0.42955,3.1979051 -0.42955,1.3285971 -1.165273,2.0315191 -0.735719,0.702923 -1.658796,0.702923 z m 0,-2.4254648 q 0.488957,0 0.845392,-0.4093966 0.361006,-0.4171159 0.557502,-1.1972815 0.196499,-0.7878911 0.196499,-1.9002043 0,-1.1200387 -0.196499,-1.9079297 Q 44.349093,3.317353 43.988087,2.9079626 43.631652,2.4908405 43.142695,2.4908405 q -0.484387,0 -0.845393,0.4171221 -0.361006,0.4093904 -0.562072,1.1972815 -0.196495,0.787891 -0.196495,1.9079297 0,1.1123132 0.196495,1.9002043 0.201066,0.7801656 0.562072,1.1972815 0.361006,0.4093966 0.845393,0.4093966 z M 47.50685,11.760134 V 0.2507631 h 2.431075 l 0.877378,4.5187824 q 0.07312,0.4093904 0.173651,1.0041683 0.100533,0.5947842 0.205636,1.2513539 0.1051,0.6488504 0.196496,1.2436346 0.09139,0.5947779 0.146229,0.996449 h -0.415843 q 0.05484,-0.4016711 0.141662,-0.996449 0.09139,-0.5947842 0.196496,-1.2436346 0.105103,-0.6565697 0.201066,-1.2513539 0.100532,-0.5947779 0.16908,-1.0041683 l 0.868241,-4.5187824 h 2.435645 V 11.760134 h -1.6131 V 6.7778884 q 0,-0.38622 0.0091,-0.9655532 0.0091,-0.5793269 0.01829,-1.2513539 0.01373,-0.6720207 0.02285,-1.3594925 0.01369,-0.6874717 0.01369,-1.2977008 h 0.191929 q -0.100533,0.6411249 -0.214777,1.3363222 -0.11424,0.6951973 -0.223914,1.367218 -0.105103,0.6643015 -0.201066,1.2281836 -0.09597,0.5561566 -0.16908,0.9423766 l -0.97789,4.9822456 H 50.659915 L 49.663722,6.7778884 Q 49.595178,6.3916684 49.494645,5.8355118 49.394112,5.2716297 49.284439,4.6073282 49.174769,3.9353075 49.055955,3.2401102 48.941714,2.5449129 48.836611,1.903788 h 0.219344 q 0.0046,0.6102291 0.01373,1.2977008 0.0091,0.6874718 0.01829,1.3594925 0.01373,0.672027 0.02285,1.2513539 0.0091,0.5793332 0.0091,0.9655532 v 4.9822456 z m 8.93841,0 V 0.2507631 h 2.787511 q 0.785985,0 1.361768,0.47891383 0.575779,0.47118827 0.886519,1.34404767 0.315309,0.8728594 0.315309,2.0701408 0,1.189556 -0.315309,2.0624153 -0.31531,0.8728594 -0.89566,1.3517732 -0.575782,0.4789139 -1.361768,0.4789139 H 57.377475 V 5.7273669 h 1.741052 q 0.329017,0 0.566642,-0.1931069 0.242195,-0.1931131 0.374717,-0.548431 0.132518,-0.3630497 0.132518,-0.8419636 0,-0.4943648 -0.132518,-0.8419635 Q 59.927364,2.946584 59.685169,2.7534709 59.447544,2.5526384 59.118527,2.5526384 H 58.09035 v 9.2074956 z"
       id="text2"
       style="font-weight:800;font-size:25.4325px;line-height:2.1;font-family:Inter;-inkscape-font-specification:'Inter Ultra-Bold';text-align:center;letter-spacing:1.18px;word-spacing:1px;text-anchor:middle;white-space:pre;fill:#0a9f5e;stroke-width:0"
       aria-label="SERESCOMP" />
  </g>
</svg>
